<svg width="32" height="32" viewBox="0 0 32 32" fill="none" xmlns="http://www.w3.org/2000/svg">
<path d="M8.75604 14.323C8.79361 13.8549 9.00614 13.4181 9.35129 13.0996C9.69644 12.7811 10.1489 12.6043 10.6186 12.6044H21.8814C22.3511 12.6043 22.8036 12.7811 23.1487 13.0996C23.4939 13.4181 23.7064 13.8549 23.744 14.323L24.494 23.6636C24.5146 23.9207 24.4818 24.1792 24.3976 24.423C24.3135 24.6667 24.1797 24.8904 24.0048 25.0799C23.83 25.2694 23.6178 25.4207 23.3816 25.5242C23.1454 25.6277 22.8903 25.6811 22.6324 25.6812H9.86757C9.6097 25.6811 9.35463 25.6277 9.11843 25.5242C8.88224 25.4207 8.67002 25.2694 8.49515 25.0799C8.32028 24.8904 8.18654 24.6667 8.10236 24.423C8.01817 24.1792 7.98536 23.9207 8.00599 23.6636L8.75604 14.323V14.323Z" stroke="#28388E" stroke-width="1.5" stroke-linecap="round" stroke-linejoin="round"/>
<path d="M19.9859 15.4065V10.7362C19.9859 9.74533 19.5922 8.795 18.8916 8.09432C18.1909 7.39364 17.2405 7 16.2496 7C15.2587 7 14.3084 7.39364 13.6077 8.09432C12.907 8.795 12.5134 9.74533 12.5134 10.7362V15.4065" stroke="#28388E" stroke-width="1.5" stroke-linecap="round" stroke-linejoin="round"/>
</svg>
