<?xml version="1.0" encoding="UTF-8"?>
<svg id="Layer_1" xmlns="http://www.w3.org/2000/svg" version="1.1" viewBox="0 0 8732.61 1500">
  <!-- Generator: Adobe Illustrator 29.5.1, SVG Export Plug-In . SVG Version: 2.1.0 Build 141)  -->
  <defs>
    <style>
      .st0, .st1 {
        fill: #fff;
      }

      .st1 {
        fill-rule: evenodd;
      }
    </style>
  </defs>
  <g>
    <g>
      <path class="st0" d="M2290.93,1252.4h-.03c-.06-.12-.15-.27-.21-.4.09.12.18.24.24.4Z"/>
      <path class="st0" d="M1874.15,1249.78l-.27-.09"/>
      <path class="st0" d="M2276.8,1424.37c-52.95,52.95-142.4,49.33-199.79-8.06-16.83-16.83-30.98-32.38-43.58-46.68-1.13-1.25-2.19-2.5-3.29-3.71-38.63-44.09-63.13-76.18-108.69-98.6-3.45-1.7-6.27,3.17-3.05,5.26,30.21,19.64,69.28,53.61,95.6,108.24.88,1.8,1.73,3.65,2.59,5.51,13.78,30.36,23.62,66.83,26.04,110.43.1,1.75-1.31,3.23-3.06,3.23h-237.49c-1.47,0-2.77-1.04-3.01-2.49-.94-5.64-1-11.51-.07-17.47,1.65-10.79,6.31-20.36,13-28,2.01-2.29-.39-5.78-3.29-4.85-8.68,2.78-16.51,7.67-22.83,14.14-7.79,8-13.27,18.38-15.09,30.25-.28,1.88-.47,3.76-.57,5.62-.08,1.59-1.44,2.81-3.03,2.81h-38.69c-1.47,0-2.77-1.04-3.01-2.49-.94-5.64-1.03-11.51-.1-17.48,1.65-10.79,6.33-20.36,13.02-28,1.99-2.28-.36-5.78-3.25-4.86-19.4,6.19-34.63,22.88-37.96,44.4-.28,1.88-.47,3.76-.57,5.62-.08,1.59-1.44,2.81-3.03,2.81h-48.11c-1.68,0-3.04-1.36-3.04-3.04v-39.23c-.09-4.14.18-8.37.82-12.63,6-38.89,42.15-65.7,81.04-60.2l1.77.27,139.17,21.39c-33.51-10.38-68.72-27.82-102.59-51.92-6.94-4.9-13.82-10.1-20.6-15.58-50.34-40.57-87.01-88.74-106.09-134.51-20.63-49.45-20.79-96.14,4.41-127.42,3.2-3.96,6.7-7.55,10.5-10.8,5.96-5.11,12.66-9.4,19.99-12.87,47.29-22.43,120.82-10.86,192.82,30.28,18.32,10.5,36.55,22.89,54.23,37.13,6.34,5.1,12.46,10.33,18.35,15.66,2.74,2.48,6.72-1.21,4.45-4.13-24.18-31.19-50.72-55.37-78.01-74.06v-.03c-67.5-46.29-139.5-58.92-191.39-60.77-11.11-.39-21.3-.29-30.33.09-2.46.1-3.91-2.69-2.41-4.65,1.63-2.13,3.18-4.32,4.65-6.56h.03c17.25-26.17,23.39-59.09,15.11-90.83-.84-3.24-5.54-3.01-5.98.31-5.01,37.46-28.34,69.09-60.7,85.61-.78.4-1.35,1.11-1.54,1.97-.58,2.6-1.12,5.23-1.64,7.88-2.68,13.12-4.96,27.94-6.57,41.97-2.01,18.35-3.17,38.56-3.17,58.04,0,45.75,5.78,88.89,16.02,126.84.47,1.76-.68,3.55-2.49,3.78-3.91.5-7.89.75-11.95.75-19.27,0-37.16-5.78-52.07-15.72-2.23-1.48-5.14.36-4.7,3l31.49,189.93c.15.91-.12,1.81-.74,2.5-4.16,4.64-8.03,10.38-11.5,17.02-8.52,16.37-14.52,38.35-16.46,63.61-.35,4.68-.56,9.33-.62,13.95-.02,1.67-1.36,3-3.03,3h-129.12c-1.47,0-2.77-1.04-3.01-2.49-.94-5.64-1-11.51-.07-17.47,1.66-10.8,6.32-20.38,13.01-28.02,1.99-2.27-.35-5.78-3.23-4.86-7.57,2.41-14.5,6.44-20.35,11.7-9.13,8.25-15.61,19.6-17.65,32.72-.28,1.88-.47,3.76-.57,5.62-.08,1.59-1.44,2.81-3.03,2.81h-38.69c-1.47,0-2.77-1.04-3.01-2.49-.94-5.64-1.03-11.51-.1-17.48,1.65-10.79,6.33-20.36,13.02-28,1.99-2.28-.36-5.78-3.25-4.86-19.4,6.19-34.63,22.88-37.96,44.4-.28,1.88-.47,3.76-.57,5.62-.08,1.59-1.44,2.81-3.03,2.81h-45.7c-1.68,0-3.04-1.36-3.04-3.04v-39.2c-.09-4.17.15-8.4.82-12.66,5.96-38.89,42.12-65.67,80.95-60.2l.21.03,1.37.21h.06l91.6,14.09v-365.25c0-72.92-4.74-145.76-14.29-218.05-1.16-8.75-1.75-17.68-1.75-26.76,0-28.09,5.72-54.81,16.04-79.13,30.8-72.46,102.65-123.25,186.34-123.25h108.83c17.44,0,33.58,9.23,42.43,24.26l141.19,239.96c27.4,46.56,58.81,90.64,94.07,131.57,15.44,17.93,29.98,37.81,43.17,59.42,8.49,13.91,16.1,28,22.82,42.12.21.4.4.82.58,1.22,17.23,35.33,28.12,67.68,35,98.21v.03c1.28,5.57,2.4,11.05,3.38,16.49,8.64,46.71,8.52,89.32,8.49,131.77,0,41.82,34.17,75.68,76.11,75.16,41.34-.51,74.53-36.37,74.22-77.71-.53-68.98-22.83-98.3-61.46-148-23.83-30.65-53.87-69.05-88.86-129.25-92.46-159.1,24.92-242.52,61.78-268.69,32.66-23.22,119.38-70.02,138.72-80.38,1.86-1,4.1.24,4.28,2.34,2.07,25.52,7.78,154.49-85,185.39-2.62.87-2.86,4.38-.4,5.64,18.2,9.26,29.23,29.45,25.97,50.75-.89,5.79-2.75,11.17-5.41,16.02-1.27,2.32-4.73,2.05-5.56-.47-5.55-16.79-20.11-29.94-38.79-32.81-13.41-2.07-26.38,1.56-36.46,9.04-.55.41-.96,1-1.15,1.66-2.07,7.23-3.02,14.94-3.11,22.99-.15,18.05,4.14,37.83,10.77,57.49,13.15,39.26,35.43,78.12,49.3,102.23h0c17.38-27.09,49.64-42.85,83.48-37.65.54.08,1.07.17,1.6.26,2.97.52,3.43,4.58.67,5.79-25.45,11.17-44.84,34.73-49.38,64.25h0c-2.19,14.6.81,29.51,8.51,42.11,7.59,12.43,15.22,24.86,22.41,36.53q0,.06.03.03c3.41,5.6,6.73,10.99,9.89,16.16.27.43.55.85.82,1.28.06.12.15.27.21.4h.03c.88,1.46,1.77,2.89,2.62,4.29,32.17,54.96,27.09,123.86-16.74,167.69Z"/>
      <path class="st0" d="M1319.75,1385.15l-1.37-.21c.24.03.49.06.73.09.21.03.43.06.64.12Z"/>
      <path class="st0" d="M2290.93,1252.4h-.03c-.06-.12-.15-.27-.21-.4.09.12.18.24.24.4Z"/>
      <line class="st0" x1="1642.46" y1="1457.73" x2="1642.46" y2="1456.02"/>
      <line class="st0" x1="1236.39" y1="1457.76" x2="1236.39" y2="1456.02"/>
      <path class="st0" d="M2097.71,1336.85v-4.99"/>
      <path class="st0" d="M2050.26,1084.13c-4.9-9.98-10.29-20.18-16.22-30.62"/>
    </g>
    <g>
      <path class="st0" d="M23.58,1252c-.06.12-.15.27-.21.4h-.03c.06-.15.15-.27.24-.4Z"/>
      <path class="st0" d="M440.4,1249.69l-.27.09"/>
      <path class="st0" d="M1077.87,1457.76v39.2c0,1.67-1.34,3.04-3.04,3.04h-45.68c-1.61,0-2.95-1.22-3.04-2.8-.09-1.89-.27-3.74-.58-5.63-3.32-21.52-18.53-38.19-37.95-44.4-2.89-.91-5.23,2.59-3.26,4.87,6.69,7.64,11.38,17.22,13.02,28,.94,5.96.85,11.84-.09,17.47-.24,1.46-1.55,2.5-3.01,2.5h-38.68c-1.61,0-2.95-1.22-3.04-2.8-.09-1.89-.27-3.74-.58-5.63-2.04-13.12-8.52-24.47-17.65-32.72-5.84-5.26-12.78-9.28-20.33-11.72-2.89-.91-5.24,2.62-3.23,4.87,6.7,7.64,11.35,17.23,12.99,28.03.94,5.96.88,11.84-.06,17.47-.24,1.46-1.55,2.5-3.01,2.5h-129.13c-1.67,0-3.01-1.34-3.01-3.01-.06-4.6-.27-9.25-.64-13.94-1.95-25.26-7.94-47.23-16.46-63.61-3.47-6.63-7.33-12.39-11.5-17.01-.61-.7-.88-1.58-.73-2.5l31.5-189.93c.42-2.65-2.5-4.47-4.72-3.01-14.91,9.95-32.81,15.73-52.07,15.73-4.05,0-8.03-.24-11.93-.76-1.83-.21-2.98-2.01-2.5-3.77,10.23-37.95,16.01-81.1,16.01-126.84,0-19.48-1.16-39.68-3.17-58.04-1.61-14.03-3.9-28.85-6.57-41.97-.52-2.65-1.06-5.26-1.64-7.88-.18-.85-.76-1.55-1.52-1.95-32.38-16.52-55.69-48.18-60.71-85.61-.43-3.32-5.14-3.56-5.96-.3-8.28,31.71-2.16,64.64,15.09,90.81h.03c1.49,2.22,3.04,4.41,4.66,6.54,1.49,1.98.06,4.78-2.4,4.66-9.04-.4-19.23-.49-30.34-.09-51.89,1.86-123.89,14.49-191.39,60.77v.03c-27.27,18.69-53.81,42.88-78,74.07-2.25,2.92,1.7,6.6,4.44,4.11,5.9-5.33,12.02-10.53,18.35-15.64,17.68-14.24,35.91-26.63,54.23-37.13,72-41.15,145.53-52.71,192.82-30.28,7.33,3.47,14.03,7.76,20,12.87,3.8,3.26,7.3,6.85,10.5,10.8,25.2,31.29,25.05,77.97,4.41,127.42-19.08,45.77-55.75,93.95-106.09,134.51-6.79,5.48-13.67,10.68-20.6,15.58-33.87,24.1-69.08,41.54-102.59,51.92l139.17-21.39,1.76-.27c38.89-5.51,75.05,21.3,81.04,60.2.64,4.26.91,8.49.82,12.63v39.23c0,1.67-1.34,3.04-3.04,3.04h-48.09c-1.61,0-2.95-1.22-3.04-2.8-.09-1.89-.27-3.74-.58-5.63-3.32-21.52-18.53-38.19-37.95-44.4-2.89-.91-5.24,2.59-3.26,4.87,6.7,7.64,11.38,17.22,13.03,28,.94,5.96.85,11.84-.09,17.47-.24,1.46-1.55,2.5-3.01,2.5h-38.68c-1.61,0-2.95-1.22-3.04-2.8-.09-1.89-.27-3.74-.58-5.63-1.83-11.87-7.31-22.25-15.09-30.25-6.3-6.48-14.15-11.35-22.82-14.15-2.89-.91-5.3,2.59-3.29,4.87,6.69,7.64,11.35,17.22,12.99,28,.94,5.96.88,11.84-.06,17.47-.24,1.46-1.55,2.5-3.01,2.5h-237.5c-1.73,0-3.13-1.49-3.04-3.23,2.4-43.61,12.23-80.1,26.02-110.44.85-1.86,1.7-3.71,2.59-5.51,26.33-54.63,65.4-88.59,95.62-108.25,3.22-2.1.4-6.97-3.04-5.27-45.56,22.43-70.06,54.51-108.71,98.6-1.1,1.22-2.16,2.47-3.29,3.71-12.6,14.3-26.75,29.85-43.58,46.68-57.4,57.4-146.84,61.02-199.79,8.06-43.82-43.82-48.91-112.72-16.74-167.69.85-1.4,1.73-2.83,2.62-4.29h.03c.06-.12.15-.27.21-.4.27-.43.55-.85.82-1.28,3.17-5.17,6.48-10.56,9.89-16.16t.03-.03c7.21-11.66,14.82-24.1,22.43-36.52,6.06-9.89,9.19-21.24,9.19-32.75,0-3.1-.24-6.24-.7-9.37-4.54-29.52-23.92-53.07-49.36-64.24-2.77-1.22-2.31-5.27.67-5.78.52-.09,1.07-.18,1.58-.27,4.32-.67,8.61-.97,12.87-.97,28.97,0,55.45,15,70.6,38.62,13.88-24.1,36.16-62.97,49.3-102.22,6.63-19.66,10.92-39.44,10.77-57.49-.09-8.06-1.03-15.76-3.1-23.01-.18-.64-.58-1.25-1.13-1.64-10.1-7.49-23.07-11.11-36.49-9.04-18.69,2.86-33.23,16.01-38.77,32.81-.85,2.53-4.29,2.8-5.57.46-2.65-4.84-4.5-10.23-5.42-16.01-3.26-21.3,7.79-41.48,25.99-50.73,2.47-1.28,2.22-4.78-.4-5.66C4.01,859.81,9.73,730.84,11.8,705.33c.15-2.1,2.4-3.35,4.26-2.34,19.35,10.35,106.06,57.15,138.71,80.37,36.85,26.17,154.23,109.59,61.78,268.69-35,60.2-65.03,98.6-88.86,129.25-38.62,49.7-60.93,79.03-61.44,148-.34,41.36,32.87,77.21,74.2,77.73,41.97.52,76.11-33.35,76.11-75.17-.03-42.45-.15-85.06,8.49-131.77.97-5.45,2.1-10.93,3.38-16.49v-.03c6.88-30.52,17.77-62.88,35-98.21.18-.4.36-.82.58-1.22l16.22-30.62c-5.94,10.44-11.32,20.63-16.22,30.62,6.73-14.12,14.33-28.21,22.82-42.12,13.21-21.61,27.72-41.48,43.18-59.41,35.24-40.93,66.68-85.03,94.07-131.59l103.47-240.76c38.22-88.93,13.51-226.39,55.21-337.9,2.53,192.58,159.87,168.51,253.54,174.78,64.06,4.29,98.12,186.98,82.6,342.04,0,9.07-.58,18.02-1.73,26.75-9.56,72.31-14.3,145.13-14.3,218.05v365.26l91.6-14.09h.06l1.37-.21.21-.03c38.83-5.48,74.99,21.3,80.95,60.2.67,4.26.91,8.49.82,12.66Z"/>
      <path class="st0" d="M280.22,1053.52l-16.22,30.62c4.9-9.98,10.29-20.18,16.22-30.62Z"/>
      <path class="st0" d="M995.88,1384.93l-1.37.21c.21-.06.42-.09.64-.12.24-.03.49-.06.73-.09Z"/>
      <path class="st0" d="M23.58,1252c-.06.12-.15.27-.21.4h-.03c.06-.15.15-.27.24-.4Z"/>
      <line class="st0" x1="671.81" y1="1456.02" x2="671.81" y2="1457.73"/>
      <line class="st0" x1="1077.88" y1="1456.02" x2="1077.88" y2="1457.76"/>
      <path class="st0" d="M216.56,1331.86c0,1.67,0,3.32,0,4.99"/>
      <path class="st0" d="M280.22,1053.52l-16.22,30.62c4.9-9.98,10.29-20.18,16.22-30.62Z"/>
    </g>
    <path class="st0" d="M1745.32,61.65c-2.59-1.77-6.03-1.67-8.55.18-19.63,14.36-49.73,46.78-75.72,46.41-8.77-.12-77.82-11.11-99.36-12.11-21.52-1.03-35.88,26.14-46.62,27.18-10.77,1-105.12-4.11-113.88,0-8.79,4.08-6.6,34.85,0,46.14,6.57,11.26,35.42-5.14,35.42-5.14,0,0-35.91,36.28-35.42,52.68.7,24.53,18.14,50.03,37.34,66.83,2.07,1.83,5.3.12,5.02-2.62-.94-8.7-.67-22.4,8.64-28.21,11.75-7.36,55.02-37.98,78.21,2.53,24.5,42.79.58,85.61-31.74,85.61-29.64,0-39.26-12.9-52.47-24.68-1.67-1.46-4.32-.73-4.96,1.4-2.16,7.4-6.57,21.97-9.46,29-3.96,9.65-8.03,48.63,8.61,54.02,26.48,8.61,26.54-18.35,77.57-14.39,51.01,3.96,174.02,18.29,174.02-120.18,0-63.45,16.25-132.87,27.12-146.02,10.83-13.18,24.77-41.05,24.77-41.05,0,0,3.87,17.04,2.31,26.26-1.55,9.19-12.39,27.18-12.39,27.18,0,0,20.91-8.52,25.56-36.4,3.29-19.81-7.52-30.25-14.03-34.6ZM1599.43,149.75c-6.76,7.36-20.54,21.42-28.15,22.22-7.82.82-19.72-14.91-25.02-22.58-1.31-1.89-.15-4.47,2.13-4.75,8.06-.94,25.65-2.28,49.06.03,2.5.24,3.68,3.23,1.98,5.08Z"/>
    <path class="st0" d="M554.92,96.25c4.66,27.88,25.56,36.4,25.56,36.4,0,0-10.83-17.99-12.39-27.18-1.55-9.22,2.31-26.26,2.31-26.26,0,0,13.94,27.88,24.77,41.05,10.86,13.15,27.12,82.56,27.12,146.02,0,138.47,123.01,124.14,174.02,120.18,51.04-3.96,51.1,23.01,77.57,14.39,16.65-5.39,12.57-44.37,8.61-54.02-2.89-7.03-7.3-21.61-9.46-29-.64-2.13-3.29-2.86-4.96-1.4-13.21,11.78-22.82,24.68-52.47,24.68-32.32,0-56.24-42.82-31.74-85.61,23.19-40.51,66.47-9.89,78.21-2.53,9.31,5.81,9.59,19.51,8.64,28.21-.27,2.74,2.95,4.44,5.02,2.62,19.2-16.8,36.64-42.3,37.34-66.83.49-16.4-35.42-52.68-35.42-52.68,0,0,28.85,16.4,35.42,5.14,6.6-11.29,8.79-42.06,0-46.14-8.77-4.11-103.11,1-113.88,0-10.74-1.03-25.11-28.21-46.62-27.18-21.55,1-90.6,11.99-99.36,12.11-25.99.37-56.09-32.05-75.72-46.41-2.53-1.86-5.96-1.95-8.55-.18-6.51,4.35-17.32,14.79-14.03,34.6ZM716.82,144.67c23.4-2.31,40.99-.97,49.06-.03,2.28.27,3.44,2.86,2.13,4.75-5.29,7.67-17.19,23.4-25.02,22.58-7.61-.79-21.39-14.85-28.15-22.22-1.7-1.86-.52-4.84,1.98-5.08Z"/>
    <path class="st0" d="M1588.35,64.62s51.17,11.31,76.11,9.05c14.42-1.3,61.28-46.9,76.73-45.38,21.99,2.17,30.18,19.63,45.9,29.16,17.94,10.88,77.16,27.83,118.62,105.4,0,0,4.22-63.76-46.65-88.23,0,0,33.3.57,63.32-19.81,0,0-58.51-2.12-109.71-28.56-38.64-19.95-74.44-38.71-143.62-15.6-53.66,17.92-80.7,53.95-80.7,53.95Z"/>
    <g>
      <line class="st0" x1="1786.16" y1="85.29" x2="1786.16" y2="85.26"/>
      <line class="st0" x1="1852.72" y1="475.9" x2="1851.81" y2="475.9"/>
      <path class="st0" d="M1922.38,304.26c0,66.92-26.9,127.54-70.57,171.64-15.4,15.61-32.93,29.12-52.1,40.14-6.15,3.53-12.48,6.82-18.99,9.8-31.13,14.46-65.83,22.49-102.38,22.49h-88.86c-98.27,0-183.12,57.37-222.86,140.45,6.7-92.24,64.09-170.42,144.43-206.85,4.75-2.16,9.62-4.17,14.55-6.03h-80.34c11.63-9.68,24.13-18.32,37.4-25.75,35.67-19.99,76.78-31.41,120.61-31.41,101.3,0,124.65-79.57,124.65-130.06s6.48-119.7,16.58-127.95c10.1-8.25,37.96-28.73,39.24-70.36,80.71,39.78,138.65,117.8,138.65,213.88Z"/>
    </g>
    <g>
      <path class="st1" d="M1132.5,683.73c1.78,1.81,2.29,4.52,1.26,6.8l-50.67,112.92c-.78,1.72-1.05,3.64-.63,5.51,3.4,14.93,13.61,28.12,28.75,34.68,5.36,2.35,10.87,3.64,16.38,4.03,2.8.21,3.82,3.7,1.63,5.45-14,10.99-36.37,14.87-56.2,8.52-3.79-1.2-7.29-2.74-10.42-4.52-1.57-.87-3.49-.18-4.21,1.41l-49.19,109.64c-1.32,2.98-5.84,2.08-5.84-1.2v-197.54c0-32-15.77-52.08-35.43-65.66-1.17-.81-1.63-2.32-1.08-3.64,13.19-32.03,19.63-72.73,19.63-106.9,0-17.73-1.51-34.89-4.33-51.21-2.92-16.68-7.19-32.45-12.64-46.99-5.18-13.73-11.38-26.34-18.45-37.57-.66-1.05-.57-2.41.21-3.34,14.87-17.64,28.33-38.23,39.47-61.29,4.24-8.79,7.98-17.64,11.26-26.46v-.09c3.61-9.6,6.59-19.18,9.03-28.69.69-2.71,1.35-5.33,1.96-8.01-.03-.03,0-.06,0-.06,2.86-12.7,4.7-25.23,5.54-37.33.12-1.9.24-3.82.3-5.72v-.06c1.14-24.87-2.05-47.87-9.3-67.25-.36-1.02-.18-2.2.6-3.01,16.89-18.36,46.9-30.53,81.16-30.53,14.87,0,28.96,2.29,41.54,6.41.78.24,1.41.84,1.75,1.57-4.21,7.25-7.92,14.87-11.08,22.79-14.42,3.07-27.67,9.87-38.47,19.6,8.04-1.08,16.35-.99,24.75.42,2.32.39,4.61.87,6.83,1.45-1.14,4.49-2.11,9.06-2.89,13.73-1.26,7.65-2.02,15.26-2.26,22.82-13.97,3.16-26.82,9.87-37.36,19.33,8.01-1.05,16.32-.96,24.72.45,4.64.78,9.12,1.93,13.43,3.4,2.47,24.38,10.14,47.59,22.04,68.25-7.35,2.89-14.21,6.8-20.41,11.59-8.76,6.74-16.2,15.23-21.67,25.05-3.19,5.54-5.72,11.53-7.53,17.85,9.96,4.03,18.88,9.93,26.37,17.16,4.36,4.18,8.28,8.85,11.59,13.88,5.63,8.4,9.75,17.82,12.04,27.85-14.99-8.07-32.15-10.66-48.53-7.71-11.5,2.05-22.58,6.8-32.27,14.3-3.16,2.38-6.17,5.12-9.03,8.16-22.04,23.42-25.53,57.65-11.65,85.04,3.55,7.04,8.28,13.64,14.12,19.48l5.3,5.3,79.93,79.96Z"/>
      <path class="st1" d="M1181.81,683.73c-1.78,1.81-2.29,4.52-1.26,6.8l50.67,112.92c.78,1.72,1.05,3.64.63,5.51-3.4,14.93-13.61,28.12-28.75,34.68-5.36,2.35-10.87,3.64-16.38,4.03-2.8.21-3.82,3.7-1.63,5.45,14,10.99,36.37,14.87,56.2,8.52,3.79-1.2,7.29-2.74,10.42-4.52,1.57-.87,3.49-.18,4.21,1.41l49.19,109.64c1.32,2.98,5.84,2.08,5.84-1.2v-197.54c0-32,15.77-52.08,35.43-65.66,1.17-.81,1.63-2.32,1.08-3.64-13.19-32.03-19.63-72.73-19.63-106.9,0-17.73,1.51-34.89,4.33-51.21,2.92-16.68,7.19-32.45,12.64-46.99,5.18-13.73,11.38-26.34,18.45-37.57.66-1.05.57-2.41-.21-3.34-14.87-17.64-28.33-38.23-39.47-61.29-4.24-8.79-7.98-17.64-11.26-26.46v-.09c-3.61-9.6-6.59-19.18-9.03-28.69-.69-2.71-1.35-5.33-1.96-8.01.03-.03,0-.06,0-.06-2.86-12.7-4.7-25.23-5.54-37.33-.12-1.9-.24-3.82-.3-5.72v-.06c-1.14-24.87,2.05-47.87,9.3-67.25.36-1.02.18-2.2-.6-3.01-16.89-18.36-46.9-30.53-81.16-30.53-14.87,0-28.96,2.29-41.54,6.41-.78.24-1.41.84-1.75,1.57,4.21,7.25,7.92,14.87,11.08,22.79,14.42,3.07,27.67,9.87,38.47,19.6-8.04-1.08-16.35-.99-24.75.42-2.32.39-4.61.87-6.83,1.45,1.14,4.49,2.11,9.06,2.89,13.73,1.26,7.65,2.02,15.26,2.26,22.82,13.97,3.16,26.82,9.87,37.36,19.33-8.01-1.05-16.32-.96-24.72.45-4.64.78-9.12,1.93-13.43,3.4-2.47,24.38-10.14,47.59-22.04,68.25,7.35,2.89,14.21,6.8,20.41,11.59,8.76,6.74,16.2,15.23,21.67,25.05,3.19,5.54,5.72,11.53,7.53,17.85-9.96,4.03-18.88,9.93-26.37,17.16-4.36,4.18-8.28,8.85-11.59,13.88-5.63,8.4-9.75,17.82-12.04,27.85,14.99-8.07,32.15-10.66,48.53-7.71,11.5,2.05,22.58,6.8,32.27,14.3,3.16,2.38,6.17,5.12,9.03,8.16,22.04,23.42,25.53,57.65,11.65,85.04-3.55,7.04-8.28,13.64-14.12,19.48l-5.3,5.3-79.93,79.96Z"/>
    </g>
  </g>
  <path class="st0" d="M8732.61,255.82c0,12.33-2.38,23.84-7.13,34.53-4.75,10.69-11.25,20.02-19.49,27.96-8.24,7.95-17.86,14.22-28.85,18.82-10.99,4.61-22.8,6.91-35.42,6.91s-24.17-2.3-35.09-6.91c-10.92-4.6-20.46-10.92-28.63-18.94-8.17-8.02-14.59-17.38-19.27-28.07-4.68-10.69-7.02-22.05-7.02-34.09s2.34-23.39,7.02-34.09c4.68-10.69,11.06-20.05,19.16-28.07,8.09-8.02,17.6-14.33,28.52-18.94,10.92-4.6,22.61-6.91,35.09-6.91s24.47,2.3,35.53,6.91c11.06,4.61,20.72,10.84,28.96,18.71,8.24,7.87,14.74,17.15,19.49,27.85,4.75,10.69,7.13,22.13,7.13,34.31ZM8719.24,255.82c0-10.39-2.04-20.16-6.13-29.3-4.09-9.13-9.66-17.08-16.71-23.84-7.06-6.76-15.3-12.06-24.73-15.93-9.43-3.86-19.49-5.79-30.19-5.79s-20.68,1.97-29.96,5.9c-9.28,3.94-17.38,9.32-24.28,16.15-6.91,6.83-12.33,14.82-16.26,23.95-3.94,9.13-5.9,18.83-5.9,29.07s1.97,19.94,5.9,29.07c3.93,9.13,9.36,17.12,16.26,23.95,6.91,6.83,15.04,12.22,24.39,16.15,9.36,3.94,19.38,5.9,30.07,5.9s20.72-1.97,30.07-5.9c9.36-3.93,17.56-9.32,24.62-16.15,7.05-6.83,12.62-14.82,16.71-23.95,4.08-9.13,6.13-18.9,6.13-29.3ZM8678.92,228.87c0,6.68-2.15,12.25-6.46,16.71-4.31,4.46-11.29,7.35-20.94,8.69l28.96,32.3c2.23,2.53,4.53,4.42,6.91,5.68,2.37,1.26,5.35,2.19,8.91,2.79v6.01h-27.62l-32.3-38.09c-2.23-2.52-4.12-4.23-5.68-5.12-1.56-.89-3.23-1.34-5.01-1.34v23.84c0,2.97.15,5.42.45,7.35.3,1.93,1,3.45,2.12,4.57,1.11,1.12,2.71,1.86,4.79,2.23,2.08.37,4.9.56,8.47.56v6.01h-46.34v-6.01c4.6-.15,7.57-1.11,8.91-2.9,1.34-1.78,2.01-5.49,2.01-11.14v-55.47c0-2.82-.11-5.12-.33-6.91-.22-1.78-.67-3.19-1.34-4.23-.67-1.04-1.64-1.74-2.9-2.12-1.26-.37-2.93-.63-5.01-.78v-6.68h40.99c13.22,0,23.43,2.12,30.63,6.35,7.2,4.23,10.8,10.14,10.8,17.71ZM8625.68,249.14h8.24c7.57,0,13.18-1.52,16.82-4.57,3.64-3.04,5.46-8.05,5.46-15.04,0-6.24-1.45-10.62-4.34-13.14-2.9-2.52-7.69-3.79-14.37-3.79h-9.58c-1.49,0-2.23.67-2.23,2.01v34.53Z"/>
  <g>
    <path class="st0" d="M3927.7,344.69c-113.81,0-200.54,36.15-257.78,107.46-59.91,74.64-72.49,169.83-72.49,236.54s12.58,161.9,72.49,236.54c57.24,71.31,143.97,107.46,257.78,107.46s200.54-36.16,257.78-107.46c59.91-74.64,72.49-169.83,72.49-236.54s-12.58-161.9-72.49-236.54c-57.24-71.31-143.97-107.46-257.78-107.46ZM3927.7,1003.24c-138.87,0-221.78-117.59-221.78-314.55s82.91-314.55,221.78-314.55,221.78,114.65,221.78,314.55-80.84,314.55-221.78,314.55Z"/>
    <path class="st0" d="M5884.13,985.49l-270.28-632.86c-2.06-4.82-6.79-7.95-12.04-7.95h0c-5.27,0-10.03,3.16-12.07,8.02l-258.03,614.94c-10.26,25.66-34.59,41.76-62.05,40.82h0c-4.16-.13-7.6,3.21-7.6,7.37v9.47c0,4.07,3.3,7.37,7.37,7.37h120.26c4.07,0,7.37-3.3,7.37-7.37v-9.47c0-4.07-3.3-7.37-7.37-7.37h0c-13.18,0-23.11-3.91-27.95-11-4.09-5.99-4.5-13.98-1.24-22.33l75.75-180.14h259.13l83.28,198.01c1.11,2.77,2.64,7.9.46,11.13-1.89,2.79-6.69,4.33-13.51,4.33h0c-4.07,0-7.37,3.3-7.37,7.37v9.47c0,4.07,3.3,7.37,7.37,7.37h145.83c4.07,0,7.37-3.3,7.37-7.37v-9.47c0-4.07-3.3-7.37-7.37-7.37h0c-10.94,0-18.54-3.69-27.31-22.98ZM5682.51,765.12h-233.45l115.86-276.68,117.59,276.68Z"/>
    <path class="st0" d="M7392.37,344.69c-113.81,0-200.54,36.16-257.78,107.48-59.91,74.66-72.49,169.86-72.49,236.59s12.58,161.93,72.49,236.59c57.24,71.32,143.97,107.49,257.78,107.49s200.54-36.16,257.78-107.49c59.91-74.66,72.49-169.86,72.49-236.59s-12.58-161.93-72.49-236.59c-57.24-71.32-143.97-107.48-257.78-107.48ZM7392.37,1003.39c-138.87,0-221.78-117.62-221.78-314.62s82.91-314.62,221.78-314.62,221.78,114.68,221.78,314.62-80.84,314.62-221.78,314.62Z"/>
    <path class="st0" d="M8495.94,985.72l-181.64-272.47c82.41-9.31,171.52-40.56,171.52-177.49,0-181.6-170-181.6-306.6-181.6h-135.49c-24.42,0-44.22,19.8-44.22,44.22v594.92c0,2.06-.48,20.09-17.25,20.09h0c-4.07,0-7.37,3.3-7.37,7.37v4.56c0,4.07,3.3,7.37,7.37,7.37h136.36c4.07,0,7.37-3.3,7.37-7.37v-4.56c0-4.07-3.3-7.37-7.37-7.37h0c-15.67,0-16.28-18.06-16.3-20.11l-.92-275.91h95.65l187.18,282.1c13.77,20.75,37.01,33.22,61.91,33.22l94.71.15c6.32,0,11.45-5.13,11.45-11.45h0c0-6.32-5.12-11.44-11.44-11.45l-.03-.17c-18.04-.02-34.88-9.04-44.89-24.05ZM8101.37,687.47v-303.43h97.74c83.99,0,179.17,0,179.17,151.71s-119.89,151.71-159.29,151.71h-117.62Z"/>
    <path class="st0" d="M2767.02,354.09c-26.98,0-48.85,21.87-48.85,48.85v559.69c-.06,3.93-1.95,51.93-49.58,51.93h-1.4c-5.01,0-9.06,4.06-9.06,9.06h0c0,5.01,4.06,9.06,9.06,9.06h137.91c5.01,0,9.06-4.06,9.06-9.06h0c0-5.01-4.06-9.06-9.06-9.06h-1.4c-47.64,0-49.52-47.99-49.58-51.85v-478.77l212.43,474.79c3.53,7.89,11.37,12.97,20.01,12.97h0c8.8,0,16.75-5.26,20.18-13.36l207.72-489.75v516.97c-.06,3.95-1.23,29.41-13.93,29.41h-1.6c-4.89,0-8.86,3.97-8.86,8.86h0c0,4.89,3.97,8.86,8.86,8.86h138.31c4.89,0,8.86-3.97,8.86-8.86h0c0-4.89-3.97-8.86-8.86-8.86h-1.6c-11.84,0-12.94-25.46-12.99-29.34V403.43c0-27.17-22.17-49.12-49.34-48.84l-22.28.23c-16.66.17-31.63,10.2-38.13,25.54l-171.32,404.51c-5.29,12.5-22.95,12.67-28.49.28l-181.56-406.26c-6.74-15.08-21.71-24.79-38.23-24.79h-26.29Z"/>
    <path class="st0" d="M6231.69,354.09c-26.98,0-48.85,21.87-48.85,48.85v559.69c-.06,3.93-1.95,51.93-49.58,51.93h-1.4c-5.01,0-9.06,4.06-9.06,9.06h0c0,5.01,4.06,9.06,9.06,9.06h137.91c5.01,0,9.06-4.06,9.06-9.06h0c0-5.01-4.06-9.06-9.06-9.06h-1.4c-47.64,0-49.52-47.99-49.58-51.85v-478.77l212.43,474.79c3.53,7.89,11.37,12.97,20.01,12.97h0c8.8,0,16.75-5.26,20.18-13.36l207.72-489.75v516.97c-.06,3.95-1.23,29.41-13.93,29.41h-1.6c-4.89,0-8.86,3.97-8.86,8.86h0c0,4.89,3.97,8.86,8.86,8.86h138.31c4.89,0,8.86-3.97,8.86-8.86h0c0-4.89-3.97-8.86-8.86-8.86h-1.6c-11.84,0-12.94-25.46-12.99-29.34V403.43c0-27.17-22.17-49.12-49.34-48.84l-22.28.23c-16.66.17-31.63,10.2-38.13,25.54l-171.32,404.51c-5.29,12.5-22.95,12.67-28.49.28l-181.56-406.26c-6.74-15.08-21.71-24.79-38.23-24.79h-26.29Z"/>
    <path class="st0" d="M5042.31,1006.37c-.07,0-.14-.07-.21-.21-48.26-44.49-82.19-91.14-108.35-129.75-3.15-4.62-6.15-9.09-9.09-13.5-3.64-5.46-7.13-10.7-10.49-15.74l-86.87-130.31c76.73-9.72,168.01-42.32,168.01-178.85,0-183.47-170.6-183.47-307.62-183.47h-137.43c-24.42,0-44.22,19.8-44.22,44.22v2.93s0,590.71,0,590.71c-.07,3.92-1.26,16.86-13.99,16.86h0c-5.79,0-10.49,4.7-10.49,10.49v4.46c0,5.79,4.7,10.49,10.49,10.49h135.41c5.79,0,10.49-4.7,10.49-10.49v-4.46c0-5.79-4.7-10.49-10.49-10.49h0c-11.89,0-12.94-12.94-13.01-16.86l-.91-270.85h90.09l102.33,154.16c4.48,6.71,9.16,13.85,14.2,21.33,26.86,40.15,62.18,90.16,113.8,137.79,92.47,85.4,237.18,163.18,479.55,163.18h108.28v-28.54c-290.25,0-396.16-83.27-479.48-163.11ZM4727.13,685.53h-113.59v-294.96h93.87c102.33,0,174.72,10.56,174.72,147.45,0,147.52-116.67,147.52-155,147.52Z"/>
  </g>
</svg>