<?xml version="1.0" encoding="UTF-8"?>
<svg id="Layer_1" xmlns="http://www.w3.org/2000/svg" version="1.1" viewBox="0 0 5000 2979.36">
  <!-- Generator: Adobe Illustrator 29.5.1, SVG Export Plug-In . SVG Version: 2.1.0 Build 141)  -->
  <defs>
    <style>
      .st0, .st1 {
        fill: #fff;
      }

      .st1 {
        fill-rule: evenodd;
      }
    </style>
  </defs>
  <g>
    <g>
      <path class="st0" d="M3932.42,1664.23h-.04c-.08-.16-.2-.36-.28-.53.12.16.24.32.32.53Z"/>
      <path class="st0" d="M3378.59,1660.75l-.36-.12"/>
      <path class="st0" d="M3913.65,1892.75c-70.37,70.37-189.22,65.55-265.49-10.72-22.36-22.36-41.17-43.03-57.91-62.04-1.5-1.66-2.91-3.32-4.37-4.93-51.34-58.59-83.88-101.23-144.42-131.02-4.58-2.25-8.33,4.21-4.05,7,40.14,26.1,92.06,71.24,127.04,143.84,1.17,2.39,2.31,4.85,3.44,7.32,18.31,40.34,31.39,88.8,34.6,146.75.13,2.32-1.74,4.3-4.06,4.3h-315.59c-1.95,0-3.68-1.38-4-3.31-1.25-7.49-1.33-15.29-.1-23.22,2.2-14.33,8.39-27.05,17.27-37.21,2.66-3.05-.51-7.68-4.37-6.45-11.53,3.69-21.94,10.19-30.33,18.79-10.35,10.64-17.63,24.43-20.06,40.2-.38,2.5-.63,4.99-.75,7.46-.11,2.11-1.92,3.74-4.03,3.74h-51.42c-1.95,0-3.68-1.38-4-3.31-1.25-7.49-1.37-15.3-.14-23.22,2.2-14.33,8.41-27.06,17.3-37.21,2.65-3.03-.48-7.68-4.31-6.46-25.77,8.23-46.01,30.4-50.44,59-.38,2.5-.63,4.99-.75,7.46-.11,2.11-1.92,3.74-4.03,3.74h-63.92c-2.23,0-4.04-1.81-4.04-4.04v-52.13c-.12-5.5.24-11.12,1.09-16.78,7.97-51.68,56.01-87.31,107.69-79.99l2.35.36,184.93,28.43c-44.52-13.79-91.31-36.96-136.32-68.99-9.22-6.51-18.36-13.43-27.38-20.71-66.89-53.91-115.62-117.92-140.97-178.75-27.42-65.72-27.62-127.75,5.86-169.32,4.25-5.26,8.9-10.03,13.95-14.36,7.93-6.79,16.82-12.5,26.57-17.11,62.84-29.8,160.55-14.44,256.23,40.24,24.35,13.95,48.57,30.41,72.06,49.34,8.42,6.78,16.55,13.73,24.39,20.8,3.64,3.29,8.92-1.61,5.92-5.49-32.13-41.44-67.4-73.58-103.66-98.42v-.04c-89.7-61.51-185.38-78.29-254.33-80.76-14.76-.52-28.3-.39-40.3.12-3.27.14-5.2-3.57-3.21-6.17,2.17-2.83,4.22-5.74,6.18-8.71h.04c22.93-34.78,31.08-78.52,20.08-120.69-1.12-4.3-7.36-4-7.95.41-6.66,49.77-37.65,91.8-80.65,113.75-1.04.53-1.79,1.48-2.05,2.61-.77,3.46-1.49,6.95-2.18,10.47-3.56,17.43-6.59,37.12-8.73,55.77-2.67,24.39-4.21,51.24-4.21,77.12,0,60.8,7.68,118.12,21.29,168.55.63,2.34-.9,4.72-3.3,5.03-5.2.66-10.49,1-15.88,1-25.6,0-49.38-7.68-69.19-20.89-2.96-1.97-6.82.48-6.24,3.98l41.84,252.38c.2,1.21-.16,2.41-.98,3.32-5.53,6.16-10.67,13.79-15.28,22.61-11.32,21.76-19.29,50.95-21.88,84.52-.47,6.21-.74,12.4-.82,18.54-.03,2.21-1.81,3.99-4.02,3.99h-171.58c-1.95,0-3.68-1.38-4-3.31-1.25-7.49-1.33-15.29-.1-23.22,2.2-14.35,8.4-27.08,17.29-37.24,2.64-3.02-.47-7.68-4.29-6.46-10.06,3.21-19.27,8.56-27.04,15.55-12.13,10.96-20.75,26.04-23.46,43.47-.38,2.5-.63,4.99-.75,7.46-.11,2.11-1.92,3.74-4.03,3.74h-51.42c-1.95,0-3.68-1.38-4-3.31-1.25-7.49-1.37-15.3-.14-23.22,2.2-14.33,8.41-27.06,17.3-37.21,2.65-3.03-.48-7.68-4.31-6.46-25.77,8.23-46.01,30.4-50.44,59-.38,2.5-.63,4.99-.75,7.46-.11,2.11-1.92,3.74-4.03,3.74h-60.73c-2.23,0-4.04-1.81-4.04-4.04v-52.09c-.12-5.54.2-11.16,1.09-16.82,7.93-51.68,55.97-87.27,107.57-79.99l.28.04,1.82.28h.08l121.73,18.72v-485.36c0-96.9-6.3-193.69-18.98-289.76-1.54-11.63-2.33-23.5-2.33-35.55,0-37.33,7.6-72.83,21.31-105.14,40.93-96.29,136.41-163.78,247.62-163.78h144.61c23.18,0,44.62,12.26,56.38,32.24l187.62,318.87c36.41,61.87,78.15,120.45,125,174.84,20.52,23.82,39.84,50.24,57.36,78.96,11.28,18.48,21.39,37.2,30.33,55.97.28.53.53,1.09.77,1.62,22.89,46.95,37.37,89.94,46.51,130.5v.04c1.7,7.4,3.19,14.68,4.49,21.92,11.49,62.08,11.32,118.69,11.28,175.11,0,55.58,45.41,100.56,101.14,99.88,54.93-.68,99.04-48.33,98.62-103.27-.71-91.67-30.34-130.63-81.68-196.67-31.67-40.72-71.58-91.76-118.09-171.75-122.86-211.42,33.12-322.27,82.09-357.05,43.39-30.85,158.64-93.04,184.33-106.81,2.47-1.32,5.45.31,5.68,3.11,2.76,33.92,10.34,205.3-112.95,246.35-3.48,1.16-3.8,5.82-.53,7.49,24.19,12.31,38.85,39.14,34.51,67.43-1.18,7.69-3.66,14.85-7.19,21.29-1.69,3.08-6.28,2.72-7.39-.62-7.38-22.32-26.72-39.79-51.55-43.6-17.82-2.75-35.06,2.07-48.45,12.01-.73.55-1.27,1.33-1.52,2.21-2.75,9.6-4.01,19.86-4.13,30.55-.2,23.98,5.5,50.27,14.32,76.39,17.47,52.18,47.09,103.8,65.51,135.84h0c23.09-35.99,65.96-56.94,110.93-50.03.71.11,1.42.23,2.13.35,3.95.68,4.55,6.09.89,7.7-33.83,14.84-59.58,46.15-65.62,85.37h0c-2.91,19.4,1.08,39.21,11.31,55.96,10.09,16.52,20.22,33.03,29.78,48.54q0,.08.04.04c4.53,7.44,8.94,14.6,13.14,21.47.36.57.73,1.13,1.09,1.7.08.16.2.36.28.53h.04c1.17,1.94,2.35,3.84,3.48,5.7,42.75,73.04,35.99,164.59-22.24,222.83Z"/>
      <path class="st0" d="M2641.88,1840.63l-1.82-.28c.32.04.65.08.97.12.28.04.57.08.85.16Z"/>
      <path class="st0" d="M3932.42,1664.23h-.04c-.08-.16-.2-.36-.28-.53.12.16.24.32.32.53Z"/>
      <line class="st0" x1="3070.71" y1="1937.08" x2="3070.71" y2="1934.81"/>
      <line class="st0" x1="2531.12" y1="1937.12" x2="2531.12" y2="1934.81"/>
      <path class="st0" d="M3675.66,1776.45v-6.63"/>
      <path class="st0" d="M3612.61,1440.63c-6.51-13.26-13.67-26.81-21.55-40.68"/>
    </g>
    <g>
      <path class="st0" d="M919.49,1663.7c-.08.16-.2.36-.28.53h-.04c.08-.2.2-.36.32-.53Z"/>
      <path class="st0" d="M1473.37,1660.63l-.36.12"/>
      <path class="st0" d="M2320.46,1937.12v52.09c0,2.22-1.78,4.04-4.04,4.04h-60.7c-2.14,0-3.92-1.62-4.04-3.72-.12-2.51-.36-4.97-.77-7.48-4.41-28.59-24.63-50.75-50.43-59-3.84-1.21-6.95,3.44-4.33,6.47,8.9,10.15,15.12,22.89,17.31,37.21,1.25,7.93,1.13,15.73-.12,23.21-.32,1.94-2.06,3.32-4,3.32h-51.4c-2.14,0-3.92-1.62-4.04-3.72-.12-2.51-.36-4.97-.77-7.48-2.71-17.43-11.32-32.51-23.45-43.47-7.76-7-16.99-12.33-27.01-15.57-3.84-1.21-6.96,3.48-4.29,6.47,8.9,10.15,15.08,22.89,17.27,37.25,1.25,7.93,1.17,15.73-.08,23.21-.32,1.94-2.06,3.32-4,3.32h-171.59c-2.22,0-4-1.78-4-4-.08-6.11-.36-12.29-.85-18.52-2.59-33.57-10.55-62.76-21.88-84.52-4.61-8.82-9.75-16.46-15.29-22.61-.81-.93-1.17-2.1-.97-3.32l41.86-252.39c.56-3.52-3.32-5.94-6.27-4-19.82,13.22-43.59,20.91-69.19,20.91-5.38,0-10.68-.32-15.85-1.01-2.43-.28-3.96-2.67-3.32-5.01,13.59-50.43,21.27-107.77,21.27-168.56,0-25.88-1.54-52.73-4.21-77.12-2.14-18.64-5.18-38.34-8.74-55.77-.69-3.52-1.41-7-2.18-10.47-.24-1.13-1.01-2.06-2.02-2.59-43.03-21.96-74.01-64.02-80.68-113.76-.57-4.41-6.83-4.73-7.93-.4-11,42.14-2.87,85.9,20.06,120.67h.04c1.98,2.95,4.04,5.86,6.19,8.69,1.98,2.63.08,6.35-3.19,6.19-12.01-.53-25.56-.65-40.32-.12-68.95,2.47-164.63,19.25-254.33,80.76v.04c-36.24,24.83-71.5,56.98-103.65,98.43-2.99,3.88,2.26,8.78,5.9,5.46,7.85-7.08,15.97-13.99,24.39-20.79,23.5-18.93,47.72-35.39,72.06-49.34,95.68-54.68,193.39-70.04,256.23-40.24,9.75,4.61,18.64,10.31,26.57,17.11,5.06,4.33,9.71,9.1,13.95,14.36,33.49,41.57,33.28,103.61,5.86,169.32-25.36,60.82-74.09,124.84-140.97,178.75-9.02,7.28-18.16,14.19-27.38,20.71-45.01,32.03-91.8,55.2-136.32,68.99l184.93-28.43,2.34-.36c51.68-7.32,99.73,28.31,107.69,79.99.85,5.66,1.21,11.28,1.09,16.78v52.13c0,2.22-1.78,4.04-4.04,4.04h-63.9c-2.14,0-3.92-1.62-4.04-3.72-.12-2.51-.36-4.97-.77-7.48-4.41-28.59-24.63-50.75-50.43-59-3.84-1.21-6.96,3.44-4.33,6.47,8.9,10.15,15.13,22.89,17.31,37.21,1.25,7.93,1.13,15.73-.12,23.21-.32,1.94-2.06,3.32-4,3.32h-51.4c-2.14,0-3.92-1.62-4.04-3.72-.12-2.51-.37-4.97-.77-7.48-2.43-15.77-9.71-29.56-20.06-40.2-8.37-8.61-18.81-15.08-30.33-18.8-3.84-1.21-7.04,3.44-4.37,6.47,8.9,10.15,15.08,22.89,17.27,37.21,1.25,7.93,1.17,15.73-.08,23.21-.32,1.94-2.06,3.32-4,3.32h-315.6c-2.3,0-4.16-1.98-4.04-4.29,3.19-57.95,16.26-106.44,34.58-146.76,1.13-2.47,2.26-4.93,3.44-7.32,34.98-72.59,86.91-117.72,127.07-143.85,4.28-2.79.53-9.26-4.04-7-60.54,29.8-93.09,72.43-144.45,131.03-1.46,1.62-2.87,3.28-4.37,4.93-16.74,19.01-35.55,39.67-57.91,62.04-76.27,76.27-195.12,81.08-265.49,10.72-58.24-58.23-64.99-149.79-22.24-222.83,1.13-1.86,2.3-3.76,3.48-5.7h.04c.08-.16.2-.36.28-.53.36-.57.73-1.13,1.09-1.7,4.21-6.87,8.61-14.03,13.14-21.47t.04-.04c9.58-15.49,19.69-32.03,29.81-48.53,8.05-13.14,12.21-28.23,12.21-43.51,0-4.12-.32-8.29-.93-12.46-6.03-39.23-31.79-70.53-65.6-85.37-3.68-1.62-3.07-7,.89-7.68.69-.12,1.42-.24,2.1-.36,5.74-.89,11.44-1.29,17.11-1.29,38.5,0,73.68,19.94,93.82,51.32,18.44-32.03,48.04-83.67,65.51-135.84,8.82-26.12,14.52-52.41,14.32-76.39-.12-10.72-1.37-20.95-4.12-30.57-.24-.85-.77-1.66-1.5-2.18-13.43-9.95-30.65-14.76-48.49-12.01-24.83,3.8-44.16,21.27-51.52,43.59-1.13,3.36-5.7,3.72-7.4.61-3.52-6.43-5.99-13.59-7.2-21.27-4.33-28.31,10.35-55.12,34.54-67.41,3.28-1.7,2.95-6.35-.53-7.52-123.3-41.05-115.7-212.43-112.95-246.32.2-2.79,3.19-4.45,5.66-3.11,25.72,13.75,140.94,75.95,184.33,106.8,48.97,34.78,204.95,145.63,82.09,357.05-46.51,79.99-86.42,131.03-118.08,171.75-51.32,66.04-80.96,105.02-81.65,196.66-.45,54.96,43.67,102.6,98.59,103.28,55.77.69,101.14-44.32,101.14-99.89-.04-56.41-.2-113.03,11.28-175.11,1.3-7.24,2.79-14.52,4.49-21.92v-.04c9.14-40.56,23.62-83.55,46.51-130.5.24-.53.48-1.09.77-1.62l21.56-40.68c-7.89,13.87-15.04,27.42-21.56,40.68,8.94-18.76,19.05-37.49,30.33-55.97,17.55-28.71,36.84-55.12,57.38-78.94,46.83-54.39,88.6-112.99,125-174.86l137.5-319.92c50.79-118.17,17.96-300.84,73.36-449.01,3.36,255.91,212.43,223.92,336.91,232.25,85.13,5.7,130.38,248.47,109.76,454.51,0,12.05-.77,23.94-2.3,35.55-12.7,96.09-19.01,192.86-19.01,289.75v485.37l121.73-18.72h.08l1.82-.28.28-.04c51.6-7.28,99.64,28.31,107.57,79.99.89,5.66,1.21,11.28,1.09,16.82Z"/>
      <path class="st0" d="M1260.52,1399.95l-21.56,40.68c6.51-13.26,13.67-26.81,21.56-40.68Z"/>
      <path class="st0" d="M2211.52,1840.34l-1.82.28c.28-.08.56-.12.85-.16.32-.04.65-.08.97-.12Z"/>
      <path class="st0" d="M919.49,1663.7c-.08.16-.2.36-.28.53h-.04c.08-.2.2-.36.32-.53Z"/>
      <line class="st0" x1="1780.88" y1="1934.81" x2="1780.88" y2="1937.08"/>
      <line class="st0" x1="2320.48" y1="1934.81" x2="2320.48" y2="1937.12"/>
      <path class="st0" d="M1175.93,1769.82c0,2.22,0,4.41,0,6.63"/>
      <path class="st0" d="M1260.52,1399.95l-21.56,40.68c6.51-13.26,13.67-26.81,21.56-40.68Z"/>
    </g>
    <path class="st0" d="M3207.4,81.92c-3.44-2.35-8.01-2.22-11.36.24-26.08,19.09-66.08,62.16-100.62,61.67-11.65-.16-103.41-14.76-132.04-16.1-28.59-1.38-47.68,34.74-61.95,36.11-14.32,1.33-139.68-5.46-151.33,0-11.69,5.42-8.78,46.3,0,61.31,8.73,14.96,47.07-6.83,47.07-6.83,0,0-47.72,48.2-47.07,70,.93,32.59,24.1,66.48,49.62,88.81,2.75,2.43,7.04.16,6.67-3.48-1.25-11.57-.89-29.76,11.48-37.49,15.61-9.79,73.12-50.47,103.93,3.36,32.55,56.86.77,113.76-42.18,113.76-39.39,0-52.17-17.15-69.72-32.8-2.22-1.94-5.74-.97-6.59,1.86-2.87,9.83-8.73,29.2-12.58,38.54-5.26,12.82-10.68,64.62,11.44,71.78,35.18,11.44,35.26-24.39,103.08-19.13,67.78,5.26,231.24,24.3,231.24-159.7,0-84.32,21.6-176.56,36.03-194.03,14.4-17.51,32.92-54.55,32.92-54.55,0,0,5.14,22.65,3.07,34.9-2.06,12.21-16.46,36.11-16.46,36.11,0,0,27.78-11.32,33.97-48.37,4.37-26.33-9.99-40.2-18.64-45.98ZM3013.53,198.99c-8.98,9.79-27.3,28.47-37.41,29.52-10.39,1.09-26.21-19.82-33.24-30.01-1.74-2.51-.2-5.94,2.83-6.31,10.72-1.25,34.09-3.03,65.19.04,3.32.32,4.89,4.29,2.63,6.75Z"/>
    <path class="st0" d="M1625.55,127.9c6.19,37.04,33.97,48.37,33.97,48.37,0,0-14.4-23.9-16.46-36.11-2.06-12.25,3.07-34.9,3.07-34.9,0,0,18.52,37.04,32.92,54.55,14.44,17.47,36.03,109.71,36.03,194.03,0,184,163.46,164.96,231.24,159.7,67.82-5.26,67.9,30.57,103.08,19.13,22.12-7.16,16.7-58.96,11.44-71.78-3.84-9.34-9.71-28.71-12.58-38.54-.85-2.83-4.37-3.8-6.59-1.86-17.55,15.65-30.33,32.8-69.72,32.8-42.95,0-74.73-56.9-42.18-113.76,30.82-53.83,88.32-13.14,103.93-3.36,12.37,7.72,12.74,25.92,11.48,37.49-.36,3.64,3.92,5.9,6.67,3.48,25.52-22.32,48.69-56.21,49.62-88.81.65-21.8-47.07-70-47.07-70,0,0,38.34,21.8,47.07,6.83,8.78-15,11.69-55.89,0-61.31-11.65-5.46-137.01,1.33-151.33,0-14.27-1.38-33.36-37.49-61.95-36.11-28.63,1.33-120.39,15.93-132.04,16.1-34.54.49-74.53-42.58-100.62-61.67-3.36-2.47-7.93-2.59-11.36-.24-8.65,5.78-23.01,19.65-18.64,45.98ZM1840.69,192.24c31.1-3.07,54.47-1.29,65.19-.04,3.03.36,4.57,3.8,2.83,6.31-7.04,10.19-22.85,31.1-33.24,30.01-10.11-1.05-28.43-19.73-37.41-29.52-2.26-2.47-.69-6.43,2.63-6.75Z"/>
    <path class="st0" d="M2998.81,85.86s68,15.03,101.14,12.03c19.16-1.73,81.43-62.32,101.96-60.3,29.22,2.88,40.1,26.08,60.99,38.75,23.83,14.46,102.53,36.99,157.63,140.06,0,0,5.6-84.73-61.99-117.24,0,0,44.25.76,84.14-26.32,0,0-77.75-2.82-145.79-37.95-51.34-26.51-98.91-51.44-190.85-20.73-71.3,23.82-107.24,71.69-107.24,71.69Z"/>
    <g>
      <line class="st0" x1="3261.67" y1="113.34" x2="3261.67" y2="113.3"/>
      <line class="st0" x1="3350.11" y1="632.39" x2="3348.9" y2="632.39"/>
      <path class="st0" d="M3442.68,404.31c0,88.93-35.75,169.49-93.78,228.08-20.46,20.75-43.76,38.7-69.23,53.34-8.17,4.69-16.58,9.06-25.23,13.02-41.37,19.21-87.47,29.89-136.04,29.89h-118.09c-130.58,0-243.33,76.23-296.14,186.63,8.9-122.57,85.17-226.47,191.93-274.87,6.31-2.87,12.78-5.54,19.33-8.01h-106.76c15.45-12.86,32.07-24.35,49.7-34.21,47.4-26.57,102.03-41.73,160.27-41.73,134.62,0,165.65-105.74,165.65-172.83s8.61-159.07,22.04-170.03c13.43-10.96,50.44-38.17,52.14-93.49,107.25,52.86,184.24,156.54,184.24,284.21Z"/>
    </g>
    <g>
      <path class="st1" d="M2393.06,908.56c2.36,2.4,3.04,6,1.68,9.04l-67.33,150.05c-1.04,2.28-1.4,4.84-.84,7.32,4.52,19.84,18.08,37.36,38.2,46.08,7.12,3.12,14.44,4.84,21.76,5.36,3.72.28,5.08,4.92,2.16,7.24-18.6,14.6-48.32,19.76-74.69,11.32-5.04-1.6-9.68-3.64-13.84-6-2.08-1.16-4.64-.24-5.6,1.88l-65.36,145.69c-1.76,3.96-7.76,2.76-7.76-1.6v-262.5c0-42.52-20.96-69.21-47.08-87.25-1.56-1.08-2.16-3.08-1.44-4.84,17.52-42.56,26.08-96.65,26.08-142.05,0-23.56-2-46.36-5.76-68.05-3.88-22.16-9.56-43.12-16.8-62.44-6.88-18.24-15.12-35-24.52-49.92-.88-1.4-.76-3.2.28-4.44,19.76-23.44,37.64-50.8,52.44-81.45,5.64-11.68,10.6-23.44,14.96-35.16v-.12c4.8-12.76,8.76-25.48,12-38.12.92-3.6,1.8-7.08,2.6-10.64-.04-.04,0-.08,0-.08,3.8-16.88,6.24-33.52,7.36-49.6.16-2.52.32-5.08.4-7.6v-.08c1.52-33.04-2.72-63.6-12.36-89.37-.48-1.36-.24-2.92.8-4,22.44-24.4,62.32-40.56,107.85-40.56,19.76,0,38.48,3.04,55.2,8.52,1.04.32,1.88,1.12,2.32,2.08-5.6,9.64-10.52,19.76-14.72,30.28-19.16,4.08-36.76,13.12-51.12,26.04,10.68-1.44,21.72-1.32,32.88.56,3.08.52,6.12,1.16,9.08,1.92-1.52,5.96-2.8,12.04-3.84,18.24-1.68,10.16-2.68,20.28-3,30.32-18.56,4.2-35.64,13.12-49.64,25.68,10.64-1.4,21.68-1.28,32.84.6,6.16,1.04,12.12,2.56,17.84,4.52,3.28,32.4,13.48,63.24,29.28,90.69-9.76,3.84-18.88,9.04-27.12,15.4-11.64,8.96-21.52,20.24-28.8,33.28-4.24,7.36-7.6,15.32-10,23.72,13.24,5.36,25.08,13.2,35.04,22.8,5.8,5.56,11,11.76,15.4,18.44,7.48,11.16,12.96,23.68,16,37-19.92-10.72-42.72-14.16-64.49-10.24-15.28,2.72-30,9.04-42.88,19-4.2,3.16-8.2,6.8-12,10.84-29.28,31.12-33.92,76.61-15.48,113.01,4.72,9.36,11,18.12,18.76,25.88l7.04,7.04,106.21,106.25Z"/>
      <path class="st1" d="M2458.59,908.56c-2.36,2.4-3.04,6-1.68,9.04l67.33,150.05c1.04,2.28,1.4,4.84.84,7.32-4.52,19.84-18.08,37.36-38.2,46.08-7.12,3.12-14.44,4.84-21.76,5.36-3.72.28-5.08,4.92-2.16,7.24,18.6,14.6,48.32,19.76,74.69,11.32,5.04-1.6,9.68-3.64,13.84-6,2.08-1.16,4.64-.24,5.6,1.88l65.36,145.69c1.76,3.96,7.76,2.76,7.76-1.6v-262.5c0-42.52,20.96-69.21,47.08-87.25,1.56-1.08,2.16-3.08,1.44-4.84-17.52-42.56-26.08-96.65-26.08-142.05,0-23.56,2-46.36,5.76-68.05,3.88-22.16,9.56-43.12,16.8-62.44,6.88-18.24,15.12-35,24.52-49.92.88-1.4.76-3.2-.28-4.44-19.76-23.44-37.64-50.8-52.44-81.45-5.64-11.68-10.6-23.44-14.96-35.16v-.12c-4.8-12.76-8.76-25.48-12-38.12-.92-3.6-1.8-7.08-2.6-10.64.04-.04,0-.08,0-.08-3.8-16.88-6.24-33.52-7.36-49.6-.16-2.52-.32-5.08-.4-7.6v-.08c-1.52-33.04,2.72-63.6,12.36-89.37.48-1.36.24-2.92-.8-4-22.44-24.4-62.32-40.56-107.85-40.56-19.76,0-38.48,3.04-55.2,8.52-1.04.32-1.88,1.12-2.32,2.08,5.6,9.64,10.52,19.76,14.72,30.28,19.16,4.08,36.76,13.12,51.12,26.04-10.68-1.44-21.72-1.32-32.88.56-3.08.52-6.12,1.16-9.08,1.92,1.52,5.96,2.8,12.04,3.84,18.24,1.68,10.16,2.68,20.28,3,30.32,18.56,4.2,35.64,13.12,49.64,25.68-10.64-1.4-21.68-1.28-32.84.6-6.16,1.04-12.12,2.56-17.84,4.52-3.28,32.4-13.48,63.24-29.28,90.69,9.76,3.84,18.88,9.04,27.12,15.4,11.64,8.96,21.52,20.24,28.8,33.28,4.24,7.36,7.6,15.32,10,23.72-13.24,5.36-25.08,13.2-35.04,22.8-5.8,5.56-11,11.76-15.4,18.44-7.48,11.16-12.96,23.68-16,37,19.92-10.72,42.72-14.16,64.49-10.24,15.28,2.72,30,9.04,42.88,19,4.2,3.16,8.2,6.8,12,10.84,29.28,31.12,33.92,76.61,15.48,113.01-4.72,9.36-11,18.12-18.76,25.88l-7.04,7.04-106.21,106.25Z"/>
    </g>
  </g>
  <path class="st0" d="M5000,2203.82c0,10.15-1.96,19.62-5.87,28.42-3.91,8.8-9.26,16.47-16.04,23.01-6.78,6.54-14.7,11.71-23.75,15.49-9.05,3.79-18.77,5.68-29.16,5.68s-19.9-1.89-28.88-5.68c-8.99-3.79-16.84-8.98-23.56-15.59-6.72-6.6-12.01-14.3-15.86-23.1-3.85-8.8-5.78-18.15-5.78-28.06s1.93-19.25,5.78-28.06c3.85-8.8,9.11-16.5,15.77-23.1,6.66-6.6,14.49-11.8,23.47-15.59,8.99-3.79,18.61-5.68,28.88-5.68s20.14,1.9,29.25,5.68c9.11,3.79,17.05,8.93,23.84,15.4,6.78,6.48,12.13,14.12,16.04,22.92,3.91,8.8,5.87,18.22,5.87,28.24ZM4989,2203.82c0-8.56-1.68-16.6-5.04-24.11-3.36-7.52-7.95-14.06-13.75-19.62-5.81-5.56-12.59-9.93-20.35-13.11-7.76-3.18-16.05-4.77-24.85-4.77s-17.03,1.62-24.66,4.86c-7.64,3.24-14.3,7.67-19.99,13.29-5.68,5.62-10.15,12.19-13.39,19.71-3.24,7.52-4.86,15.5-4.86,23.93s1.62,16.41,4.86,23.93c3.24,7.52,7.7,14.09,13.39,19.71,5.68,5.62,12.38,10.06,20.08,13.29,7.7,3.24,15.95,4.86,24.76,4.86s17.05-1.62,24.76-4.86c7.7-3.24,14.46-7.67,20.26-13.29,5.81-5.62,10.39-12.19,13.75-19.71,3.36-7.52,5.04-15.56,5.04-24.11ZM4955.81,2181.63c0,5.5-1.77,10.09-5.32,13.75-3.55,3.67-9.29,6.05-17.24,7.15l23.84,26.59c1.83,2.08,3.73,3.64,5.68,4.68,1.95,1.04,4.4,1.81,7.33,2.29v4.95h-22.74l-26.59-31.36c-1.83-2.08-3.39-3.49-4.68-4.22-1.28-.73-2.66-1.1-4.13-1.1v19.62c0,2.45.12,4.46.37,6.05.24,1.59.83,2.84,1.74,3.76.92.92,2.23,1.53,3.94,1.83,1.71.31,4.03.46,6.97.46v4.95h-38.14v-4.95c3.79-.12,6.23-.92,7.33-2.38,1.1-1.47,1.65-4.52,1.65-9.17v-45.66c0-2.32-.09-4.22-.28-5.68-.18-1.47-.55-2.63-1.1-3.49-.55-.85-1.35-1.44-2.38-1.74-1.04-.3-2.42-.52-4.13-.64v-5.5h33.74c10.88,0,19.28,1.74,25.21,5.23,5.93,3.48,8.89,8.34,8.89,14.58ZM4911.98,2198.32h6.78c6.23,0,10.85-1.25,13.84-3.76,2.99-2.5,4.49-6.63,4.49-12.38,0-5.13-1.19-8.74-3.58-10.82-2.38-2.08-6.33-3.12-11.83-3.12h-7.89c-1.22,0-1.83.55-1.83,1.65v28.42Z"/>
  <g>
    <path class="st0" d="M1045,2276.97c-93.68,0-165.07,29.76-212.18,88.45-49.32,61.44-59.67,139.79-59.67,194.7s10.35,133.26,59.67,194.7c47.11,58.69,118.5,88.45,212.18,88.45s165.07-29.76,212.18-88.45c49.32-61.44,59.67-139.79,59.67-194.7s-10.35-133.26-59.67-194.7c-47.11-58.69-118.5-88.45-212.18-88.45ZM1045,2819.03c-114.31,0-182.55-96.79-182.55-258.91s68.25-258.91,182.55-258.91,182.55,94.37,182.55,258.91-66.54,258.91-182.55,258.91Z"/>
    <path class="st0" d="M2655.37,2804.42l-222.47-520.91c-1.69-3.97-5.59-6.54-9.91-6.54h0c-4.34,0-8.25,2.6-9.93,6.6l-212.39,506.17c-8.45,21.12-28.47,34.37-51.08,33.6h0c-3.42-.11-6.26,2.64-6.26,6.06v7.8c0,3.35,2.72,6.07,6.07,6.07h98.99c3.35,0,6.07-2.72,6.07-6.07v-7.8c0-3.35-2.72-6.07-6.07-6.07h0c-10.85,0-19.02-3.21-23.01-9.05-3.36-4.93-3.71-11.51-1.02-18.38l62.35-148.27h213.3l68.55,162.98c.91,2.28,2.18,6.51.38,9.16-1.56,2.3-5.5,3.56-11.12,3.56h0c-3.35,0-6.07,2.72-6.07,6.07v7.8c0,3.35,2.72,6.07,6.07,6.07h120.03c3.35,0,6.07-2.72,6.07-6.07v-7.8c0-3.35-2.72-6.07-6.07-6.07h0c-9,0-15.26-3.04-22.48-18.92ZM2489.41,2623.03h-192.16l95.37-227.74,96.79,227.74Z"/>
    <path class="st0" d="M3896.82,2276.97c-93.68,0-165.07,29.77-212.18,88.47-49.32,61.45-59.67,139.82-59.67,194.74s10.35,133.29,59.67,194.74c47.11,58.71,118.5,88.47,212.18,88.47s165.07-29.77,212.18-88.47c49.32-61.45,59.67-139.82,59.67-194.74s-10.35-133.29-59.67-194.74c-47.11-58.71-118.5-88.47-212.18-88.47ZM3896.82,2819.15c-114.31,0-182.55-96.81-182.55-258.97s68.25-258.97,182.55-258.97,182.55,94.39,182.55,258.97-66.54,258.97-182.55,258.97Z"/>
    <path class="st0" d="M4805.19,2804.61l-149.51-224.27c67.83-7.67,141.18-33.39,141.18-146.1,0-149.48-139.93-149.48-252.37-149.48h-111.52c-20.1,0-36.4,16.3-36.4,36.4v489.69c0,1.69-.4,16.54-14.2,16.54h0c-3.35,0-6.07,2.72-6.07,6.07v3.75c0,3.35,2.72,6.07,6.07,6.07h112.24c3.35,0,6.07-2.72,6.07-6.07v-3.75c0-3.35-2.72-6.07-6.07-6.07h0c-12.9,0-13.4-14.87-13.42-16.56l-.76-227.11h78.73l154.07,232.2c11.33,17.08,30.47,27.35,50.96,27.35l77.95.13c5.2,0,9.42-4.22,9.42-9.42h0c0-5.2-4.21-9.42-9.41-9.42l-.03-.14c-14.85-.01-28.71-7.44-36.95-19.8ZM4480.41,2559.12v-249.75h80.45c69.13,0,147.48,0,147.48,124.88s-98.68,124.88-131.11,124.88h-96.82Z"/>
    <path class="st0" d="M89.63,2284.71c-22.21,0-40.21,18-40.21,40.21v460.69c-.05,3.24-1.6,42.74-40.81,42.74h-1.15c-4.12,0-7.46,3.34-7.46,7.46h0c0,4.12,3.34,7.46,7.46,7.46h113.51c4.12,0,7.46-3.34,7.46-7.46h0c0-4.12-3.34-7.46-7.46-7.46h-1.15c-39.21,0-40.76-39.5-40.81-42.68v-394.08l174.85,390.81c2.91,6.5,9.36,10.68,16.47,10.68h0c7.24,0,13.79-4.33,16.61-11l170.98-403.12v425.52c-.05,3.25-1.02,24.21-11.47,24.21h-1.32c-4.03,0-7.3,3.27-7.3,7.3h0c0,4.03,3.27,7.3,7.3,7.3h113.85c4.03,0,7.3-3.27,7.3-7.3h0c0-4.03-3.27-7.3-7.3-7.3h-1.32c-9.75,0-10.65-20.95-10.69-24.15v-479.21c0-22.36-18.25-40.43-40.61-40.2l-18.34.19c-13.71.14-26.04,8.39-31.39,21.02l-141.02,332.96c-4.36,10.29-18.89,10.43-23.45.23l-149.44-334.4c-5.55-12.41-17.87-20.4-31.46-20.4h-21.64Z"/>
    <path class="st0" d="M2941.45,2284.71c-22.21,0-40.21,18-40.21,40.21v460.69c-.05,3.24-1.6,42.74-40.81,42.74h-1.15c-4.12,0-7.46,3.34-7.46,7.46h0c0,4.12,3.34,7.46,7.46,7.46h113.51c4.12,0,7.46-3.34,7.46-7.46h0c0-4.12-3.34-7.46-7.46-7.46h-1.15c-39.21,0-40.76-39.5-40.81-42.68v-394.08l174.85,390.81c2.91,6.5,9.36,10.68,16.47,10.68h0c7.24,0,13.79-4.33,16.61-11l170.98-403.12v425.52c-.05,3.25-1.02,24.21-11.47,24.21h-1.32c-4.03,0-7.3,3.27-7.3,7.3h0c0,4.03,3.27,7.3,7.3,7.3h113.85c4.03,0,7.3-3.27,7.3-7.3h0c0-4.03-3.27-7.3-7.3-7.3h-1.32c-9.75,0-10.65-20.95-10.69-24.15v-479.21c0-22.36-18.25-40.43-40.61-40.2l-18.34.19c-13.71.14-26.04,8.39-31.39,21.02l-141.02,332.96c-4.36,10.29-18.89,10.43-23.45.23l-149.44-334.4c-5.55-12.41-17.87-20.4-31.46-20.4h-21.64Z"/>
    <path class="st0" d="M1962.45,2821.61c-.06,0-.12-.06-.17-.17-39.73-36.62-67.65-75.02-89.18-106.8-2.59-3.8-5.07-7.48-7.48-11.11-2.99-4.49-5.87-8.81-8.64-12.95l-71.51-107.26c63.16-8,138.29-34.83,138.29-147.22,0-151.01-140.42-151.01-253.21-151.01h-113.12c-20.1,0-36.4,16.3-36.4,36.4v2.41s0,486.22,0,486.22c-.06,3.22-1.04,13.87-11.51,13.87h0c-4.77,0-8.64,3.87-8.64,8.64v3.67c0,4.77,3.87,8.64,8.64,8.64h111.46c4.77,0,8.64-3.87,8.64-8.64v-3.67c0-4.77-3.87-8.64-8.64-8.64h0c-9.79,0-10.65-10.65-10.71-13.87l-.75-222.94h74.15l84.23,126.89c3.69,5.53,7.54,11.4,11.69,17.56,22.11,33.05,51.18,74.21,93.67,113.42,76.11,70.3,195.23,134.32,394.72,134.32h89.12v-23.49c-238.91,0-326.09-68.54-394.67-134.26ZM1703.03,2557.52h-93.5v-242.79h77.26c84.23,0,143.82,8.69,143.82,121.37,0,121.42-96.03,121.42-127.58,121.42Z"/>
  </g>
</svg>