<?xml version="1.0" encoding="UTF-8"?>
<svg id="Layer_1" xmlns="http://www.w3.org/2000/svg" version="1.1" viewBox="0 0 3500 289.82">
  <!-- Generator: Adobe Illustrator 29.5.1, SVG Export Plug-In . SVG Version: 2.1.0 Build 141)  -->
  <defs>
    <style>
      .st0 {
        fill: none;
        stroke: #28388e;
        stroke-miterlimit: 10;
        stroke-width: 9.95px;
      }

      .st1 {
        fill: #28388e;
      }
    </style>
  </defs>
  <path class="st1" d="M3335.15,54.25c-21.74-6.57-16.75,15.76-19.17,27.37-5.59,26.87-39.1,31.32-59.86,41.6l-.05,11.62c2.97,2.49,5.63,1.94,9.09,1.36,15.57-2.65,73.43-28.95,87.68-38.24,26.09-16.99,41-46.88,29.02-77.38-6.59-16.79-28.29-28.74-43.07-13.71-22.48,22.85,21.87,38.03,9.11,61.75-6.01-3.79-3.77-11.65-12.75-14.37Z"/>
  <path class="st1" d="M3253.23,164.55c3.19,9.86,53.43,10.38,60.17,42.59,1.48,7.05.13,13.43,1.21,19.34,2.77,15.17,26.77,10.95,28.21-3.78,14.79,11.07-3.2,22.27-8.27,31.57-18.64,34.22,25.91,50.73,43.05,17.37,14.46-28.14-.46-61.09-24.71-78.31-12.36-8.77-72.4-36.59-86.47-39.42-3.88-.78-9.82-1.74-12.4,1.85l-.79,8.79Z"/>
  <path class="st1" d="M3376.82,163.02c28.51-4.45,36.43-24.23,3.94-33.51-20.79-5.94-43.95-6.17-64.36,1.33-26.13,9.6-15.88,23.19,5.27,29.52,14.46,4.33,40.18,5,55.15,2.66Z"/>
  <path class="st1" d="M3378.71,93.01c-5.48,6.24-26.83,14.99-20.36,24.25,5.81,8.32,37.83-5.24,44.85-12.59,8.73-9.14,20.6-34.7,7.82-43.91-19.23-13.86-22.95,21.6-32.31,32.26Z"/>
  <path class="st1" d="M3378.77,200.83c7.7,9.23,10.9,33.2,21.93,34.79,26.42-.48,14.5-34.36,2.51-46.39-7.09-7.12-38.94-20.94-44.78-12.51-6.63,9.57,15.02,17.74,20.34,24.11Z"/>
  <path class="st1" d="M3496.9,157.3c7.06-6.91,1.03-18.1-7.64-20.74-7.06-2.15-19.51-1.68-27.19-1.26-3.5.2-49.69,5.95-42.25,15.47,16.77,5.86,63.48,19.82,77.07,6.53Z"/>
  <path class="st1" d="M3454.48,204.74c14.67-29.93-52.21-48.7-59.24-38.71l-.75,10.15c16.77-2.48,47.74,53.56,59.99,28.57Z"/>
  <path class="st1" d="M3394.49,117.72l.77,10.15c6.95,9.93,72.91-7.75,58.6-38.1-12.11-25.72-41.49,30.3-59.37,27.95Z"/>
  <path class="st1" d="M161.22,6.87c-14.79-15.03-36.47-3.08-43.07,13.71-11.99,30.5,2.93,60.38,29.01,77.38,14.26,9.29,72.11,35.59,87.7,38.24,3.46.59,6.11,1.14,9.09-1.36l-.05-11.62c-20.77-10.28-54.27-14.73-59.86-41.6-2.42-11.61,2.56-33.94-19.17-27.37-8.99,2.72-6.75,10.58-12.75,14.37-12.76-23.72,31.58-38.9,9.11-61.75Z"/>
  <path class="st1" d="M233.59,153.91c-14.07,2.83-74.13,30.65-86.49,39.42-24.25,17.21-39.17,50.16-24.7,78.31,17.13,33.35,61.69,16.85,43.04-17.37-5.06-9.29-23.05-20.5-8.26-31.57,1.44,14.73,25.44,18.96,28.21,3.78,1.08-5.91-.27-12.29,1.2-19.34,6.75-32.21,57-32.73,60.19-42.59l-.79-8.79c-2.58-3.59-8.52-2.63-12.4-1.85Z"/>
  <path class="st1" d="M123.17,163.02c14.98,2.34,40.69,1.67,55.15-2.66,21.15-6.33,31.41-19.92,5.28-29.52-20.41-7.5-43.58-7.27-64.36-1.33-32.49,9.28-24.57,29.06,3.93,33.51Z"/>
  <path class="st1" d="M88.99,60.76c-12.79,9.21-.91,34.77,7.8,43.91,7.04,7.36,39.05,20.91,44.86,12.59,6.48-9.25-14.89-18.01-20.36-24.25-9.37-10.66-13.09-46.11-32.31-32.26Z"/>
  <path class="st1" d="M99.3,235.62c11.02-1.59,14.23-25.56,21.93-34.79,5.32-6.37,26.96-14.55,20.34-24.11-5.84-8.43-37.7,5.39-44.78,12.51-11.99,12.03-23.91,45.91,2.51,46.39Z"/>
  <path class="st1" d="M37.92,135.3c-7.66-.43-20.11-.9-27.19,1.26-8.66,2.64-14.7,13.83-7.62,20.74,13.58,13.29,60.3-.67,77.07-6.53,7.44-9.51-38.75-15.27-42.26-15.47Z"/>
  <path class="st1" d="M105.52,176.18l-.77-10.15c-7.01-9.99-73.9,8.78-59.22,38.71,12.25,24.99,43.22-31.05,59.99-28.57Z"/>
  <path class="st1" d="M46.14,89.77c-14.3,30.36,51.67,48.04,58.61,38.1l.77-10.15c-17.89,2.35-47.26-53.67-59.38-27.95Z"/>
  <line class="st0" x1="370.81" y1="144.75" x2="3095.31" y2="144.75"/>
</svg>